<svg width="32" height="32" viewBox="0 0 32 32" fill="none" xmlns="http://www.w3.org/2000/svg">
<path opacity="0.4" d="M21.434 2.66663H25.9486C27.8183 2.66663 29.3333 4.19443 29.3333 6.07991V10.6327C29.3333 12.5181 27.8183 14.0459 25.9486 14.0459H21.434C19.5643 14.0459 18.0493 12.5181 18.0493 10.6327V6.07991C18.0493 4.19443 19.5643 2.66663 21.434 2.66663Z" fill="black"/>
<path fill-rule="evenodd" clip-rule="evenodd" d="M6.0512 2.66663H10.5658C12.4355 2.66663 13.9505 4.19443 13.9505 6.07991V10.6327C13.9505 12.5181 12.4355 14.0459 10.5658 14.0459H6.0512C4.18151 14.0459 2.6665 12.5181 2.6665 10.6327V6.07991C2.6665 4.19443 4.18151 2.66663 6.0512 2.66663ZM6.0512 17.9539H10.5658C12.4355 17.9539 13.9505 19.4817 13.9505 21.3672V25.9199C13.9505 27.8042 12.4355 29.3332 10.5658 29.3332H6.0512C4.18151 29.3332 2.6665 27.8042 2.6665 25.9199V21.3672C2.6665 19.4817 4.18151 17.9539 6.0512 17.9539ZM25.9485 17.9539H21.4339C19.5642 17.9539 18.0492 19.4817 18.0492 21.3672V25.9199C18.0492 27.8042 19.5642 29.3332 21.4339 29.3332H25.9485C27.8182 29.3332 29.3332 27.8042 29.3332 25.9199V21.3672C29.3332 19.4817 27.8182 17.9539 25.9485 17.9539Z" fill="black"/>
</svg>
