<svg width="28" height="28" viewBox="0 0 28 28" fill="none" xmlns="http://www.w3.org/2000/svg">
<path opacity="0.4" d="M27.3332 14C27.3332 21.364 21.3638 27.3333 13.9998 27.3333C6.63584 27.3333 0.666504 21.364 0.666504 14C0.666504 6.63729 6.63584 0.666626 13.9998 0.666626C21.3638 0.666626 27.3332 6.63729 27.3332 14Z" fill="black"/>
<path d="M19.1463 9.60658L16.9863 16.4332C16.9063 16.7132 16.6796 16.9399 16.3996 17.0212L9.59962 19.1532C9.14629 19.3012 8.70629 18.8599 8.85296 18.4066L10.9863 11.5666C11.0663 11.2866 11.293 11.0732 11.573 10.9799L18.3996 8.84658C18.8663 8.69991 19.293 9.13991 19.1463 9.60658Z" fill="black"/>
</svg>
