<svg width="32" height="32" viewBox="0 0 32 32" fill="none" xmlns="http://www.w3.org/2000/svg">
<path opacity="0.4" d="M21.7769 29.3333H10.2214C5.70236 29.3333 2.6665 26.1638 2.6665 21.4457V10.5556C2.6665 5.83744 5.70236 2.66663 10.2214 2.66663H21.7783C26.2973 2.66663 29.3332 5.83744 29.3332 10.5556V21.4457C29.3332 26.1638 26.2973 29.3333 21.7769 29.3333Z" fill="black"/>
<path fill-rule="evenodd" clip-rule="evenodd" d="M14.9931 11.5666C14.9931 13.3933 13.5064 14.88 11.6797 14.88C9.85174 14.88 8.3664 13.3933 8.3664 11.5666C8.3664 9.73995 9.85174 8.25195 11.6797 8.25195C13.5064 8.25195 14.9931 9.73995 14.9931 11.5666ZM25.867 18.7834C26.1777 19.0847 26.4003 19.4287 26.547 19.7954C26.991 20.9047 26.7603 22.2381 26.2857 23.3367C25.723 24.6447 24.6457 25.6327 23.2883 26.0647C22.6857 26.2581 22.0537 26.3407 21.423 26.3407H10.2483C9.13634 26.3407 8.15234 26.0821 7.34567 25.5967C6.84034 25.2927 6.751 24.5927 7.12567 24.1367C7.75234 23.3767 8.371 22.6141 8.995 21.8447C10.1843 20.3727 10.9857 19.9461 11.8763 20.3207C12.2377 20.4754 12.6003 20.7087 12.9737 20.9541C13.9683 21.6127 15.351 22.5167 17.1723 21.5354C18.4173 20.8546 19.14 19.6898 19.769 18.6758L19.7817 18.6554C19.824 18.5875 19.866 18.5197 19.9078 18.4521C20.1217 18.1065 20.3324 17.7661 20.571 17.4527C20.867 17.0647 21.9657 15.8514 23.3857 16.7154C24.291 17.2594 25.0523 17.9954 25.867 18.7834Z" fill="black"/>
</svg>
