<svg width="32" height="32" viewBox="0 0 32 32" fill="none" xmlns="http://www.w3.org/2000/svg">
<path opacity="0.4" d="M22.219 29.3196H9.77967C7.85098 29.4394 5.95691 28.7708 4.5317 27.4681C3.22904 26.0416 2.56039 24.1476 2.68026 22.2202V9.77972C2.56039 7.85238 3.2277 5.95834 4.53037 4.53181C5.95691 3.22915 7.85098 2.56051 9.77967 2.68039H22.219C24.145 2.56051 26.0377 3.22782 27.4629 4.53048C28.7643 5.95834 29.4342 7.85105 29.3197 9.77972V22.2202C29.4382 24.1476 28.7709 26.0416 27.4683 27.4681C26.0417 28.7708 24.1476 29.4394 22.219 29.3196Z" fill="black"/>
<path d="M22.7392 13.8634L14.0022 22.6439C13.5478 23.0861 12.9506 23.3333 12.3275 23.3333H9.27667C9.1079 23.3333 8.95211 23.2683 8.83527 23.1512C8.71843 23.0341 8.6665 22.878 8.6665 22.7089L8.7444 19.626C8.75738 19.0146 9.00404 18.4422 9.43246 18.013L15.625 11.8081C15.7288 11.704 15.9106 11.704 16.0144 11.8081L18.1864 13.9713C18.3292 14.1131 18.5369 14.2055 18.7576 14.2055C19.2379 14.2055 19.6144 13.8152 19.6144 13.347C19.6144 13.1128 19.5235 12.9047 19.3807 12.7486C19.3418 12.6965 17.2737 10.6374 17.2737 10.6374C17.1439 10.5073 17.1439 10.2861 17.2737 10.1561L18.1435 9.2715C18.9484 8.465 20.2466 8.465 21.0515 9.2715L22.7392 10.9626C23.5311 11.7561 23.5311 13.0569 22.7392 13.8634Z" fill="black"/>
</svg>
