<svg width="30" height="26" viewBox="0 0 30 26" fill="none" xmlns="http://www.w3.org/2000/svg">
<path d="M20.2531 12.089C20.251 12.089 20.249 12.089 20.2469 12.089H17.7346V9.57046C17.738 9.06251 17.3289 8.64793 16.821 8.64453C16.8189 8.64453 16.8168 8.64453 16.8148 8.64453H13.1852C12.6772 8.64453 12.2654 9.05634 12.2654 9.56428V12.0828H9.75307C9.24513 12.0794 8.83054 12.4884 8.82715 12.9963C8.82715 13.0005 8.82715 13.0046 8.82715 13.0087V16.6322C8.82715 17.1401 9.23895 17.5519 9.7469 17.5519H12.2654V20.0643C12.262 20.5722 12.6711 20.9868 13.179 20.9902C13.1811 20.9902 13.1832 20.9902 13.1852 20.9902H16.8086C17.3166 20.9902 17.7284 20.5784 17.7284 20.0705V17.5519H20.2469C20.7549 17.5553 21.1694 17.1463 21.1728 16.6384C21.1728 16.6363 21.1728 16.6342 21.1728 16.6322V13.0087C21.1728 12.5008 20.7611 12.089 20.2531 12.089ZM19.9383 16.3174H17.1173C16.7764 16.3174 16.5 16.5938 16.5 16.9347V19.7556H13.5V16.9347C13.5 16.5938 13.2236 16.3174 12.8827 16.3174H10.0617V13.3235H12.8827C13.2236 13.3235 13.5 13.0472 13.5 12.7063V9.8791H16.4938V12.7001C16.4938 13.041 16.7702 13.3174 17.1111 13.3174H19.9383V16.3174Z" fill="#00725E"/>
<path d="M25.7407 4.02717H20.6543V1.85433C20.6863 0.862817 19.9085 0.0330332 18.917 0.00101155C18.8664 -0.000608825 18.8159 -0.000145931 18.7654 0.00247753H11.2346C10.2438 -0.0491429 9.39884 0.712123 9.34715 1.70279C9.34452 1.75325 9.34398 1.80379 9.34568 1.85433V4.01482H4.25926C2.2963 4.01482 0 5.13211 0 8.27408V21.7C0 24.842 2.2963 25.9593 4.25926 25.9593H25.7407C27.7037 25.9593 30 24.842 30 21.7V8.28643C30 5.14445 27.7099 4.02717 25.7407 4.02717ZM10.5802 1.85433C10.5802 1.67532 10.5802 1.19384 11.2407 1.19384H18.7654C19.4259 1.19384 19.4259 1.66914 19.4259 1.85433V4.01482H10.5802V1.85433ZM28.7654 21.7C28.7654 24.4284 26.6543 24.7247 25.7407 24.7247H4.25926C3.35185 24.7247 1.23457 24.4284 1.23457 21.7V8.28643C1.23457 5.55803 3.34568 5.26174 4.25926 5.26174H25.7407C26.6481 5.26174 28.7654 5.55803 28.7654 8.28643V21.7Z" fill="#00725E"/>
</svg>
