<svg width="27" height="27" viewBox="0 0 27 27" fill="none" xmlns="http://www.w3.org/2000/svg">
<path d="M20.4769 7.46637C20.4769 3.34364 17.1333 0 13.0106 0C8.88782 0 5.54419 3.34364 5.54419 7.46637C5.54419 11.5891 8.88782 14.9327 13.0106 14.9327C17.1333 14.9327 20.4769 11.5891 20.4769 7.46637ZM7.49194 7.46637C7.49194 4.4149 9.95909 1.94775 13.0106 1.94775C16.062 1.94775 18.5292 4.4149 18.5292 7.46637C18.5292 10.5178 16.062 12.985 13.0106 12.985C9.95909 12.985 7.49194 10.5178 7.49194 7.46637Z" fill="#00725E"/>
<path d="M0.512411 26.3596C0.674724 26.457 0.837036 26.4894 0.999348 26.4894C1.32397 26.4894 1.68106 26.3271 1.84337 26.0025C4.11575 21.9771 8.40079 19.4775 13.0105 19.4775C17.6201 19.4775 21.9052 21.9771 24.21 26.0025C24.4697 26.457 25.0865 26.6193 25.541 26.3596C25.9955 26.0999 26.1578 25.4831 25.8981 25.0286C23.2686 20.4189 18.3343 17.5298 13.0105 17.5298C7.68662 17.5298 2.75232 20.4189 0.122861 25.0286C-0.136839 25.4831 0.025474 26.0999 0.512411 26.3596Z" fill="#00725E"/>
</svg>
